<?xml version="1.0" encoding="utf-8"?>
<!-- Generator: Adobe Illustrator 15.1.0, SVG Export Plug-In . SVG Version: 6.00 Build 0)  -->
<!DOCTYPE svg PUBLIC "-//W3C//DTD SVG 1.1//EN" "http://www.w3.org/Graphics/SVG/1.1/DTD/svg11.dtd" [
	<!ENTITY ns_extend "http://ns.adobe.com/Extensibility/1.0/">
	<!ENTITY ns_ai "http://ns.adobe.com/AdobeIllustrator/10.0/">
	<!ENTITY ns_graphs "http://ns.adobe.com/Graphs/1.0/">
	<!ENTITY ns_vars "http://ns.adobe.com/Variables/1.0/">
	<!ENTITY ns_imrep "http://ns.adobe.com/ImageReplacement/1.0/">
	<!ENTITY ns_sfw "http://ns.adobe.com/SaveForWeb/1.0/">
	<!ENTITY ns_custom "http://ns.adobe.com/GenericCustomNamespace/1.0/">
	<!ENTITY ns_adobe_xpath "http://ns.adobe.com/XPath/1.0/">
]>
<svg version="1.1" id="レイヤー_1" xmlns:x="&ns_extend;" xmlns:i="&ns_ai;" xmlns:graph="&ns_graphs;"
	 xmlns="http://www.w3.org/2000/svg" xmlns:xlink="http://www.w3.org/1999/xlink" x="0px" y="0px" width="403.603px" height="500px"
	 viewBox="-81.003 -100.35 403.603 500" enable-background="new -81.003 -100.35 403.603 500" xml:space="preserve">
<metadata>
	<sfw  xmlns="&ns_sfw;">
		<slices></slices>
		<sliceSourceBounds  height="500" width="403.603" y="170.85" x="95.697" bottomLeftOrigin="true"></sliceSourceBounds>
	</sfw>
</metadata>
<g>
	<path fill="#7CC7E8" d="M116.625,323.808c-0.334,0-3.676,2.672-5.513,4.008H76.197c-3.173-1.336-9.02-3.508-9.188-3.676
		c-0.167-0.166-0.667-0.166-0.501,0c2.005,20.716,1.336,53.458,0.669,73.005l0,0c0,0.168,0.167,0.334,0.333,0.334h8.186
		c0.167,0,0.334-0.166,0.334-0.334c0-1.671,0-3.676,0-5.513h37.42c0,2.005,0,3.842,0,5.513c0,0.168,0.168,0.334,0.334,0.334h7.518
		c0.168,0,0.334-0.166,0.334-0.334l0,0c-0.166-17.373-0.5-44.938,0.335-65.152c1.17-2.005,3.173-2.506,2.672-3.007
		C123.976,328.15,117.125,323.808,116.625,323.808 M113.283,356.383H76.03c0-12.196,0-22.721,0-26.563h37.588
		C113.45,333.831,113.283,344.187,113.283,356.383 M75.862,389.795c0-9.523,0-21.051,0-31.408h37.421c0,10.357,0,21.885,0,31.408
		H75.862z"/>
	<path fill="#7CC7E8" d="M202.324,381.774L202.324,381.774c-0.167-13.697-0.335-15.368,0.168-29.066
		c1.002-1.671,2.506-2.005,2.171-2.506c-0.5-0.669-6.015-4.011-6.348-4.011c-0.334,0-4.01,2.841-5.012,3.676H178.77
		c-1.336-0.669-7.852-3.341-8.019-3.508c-0.168,0-0.502-0.168-0.502,0c1.671,16.538,1.003,19.879,0.502,35.583l0,0
		c0,0.167,0.167,0.167,0.167,0.167h6.014c0.168,0,0.168-0.167,0.168-0.167c0-2.171,0-4.176,0-6.182h18.376c0,1.837,0,3.843,0,5.848
		c0,0.166,0.166,0.166,0.166,0.166h6.016C202.157,381.942,202.324,381.942,202.324,381.774 M177.434,373.924
		c0-10.525,0-18.376,0-22.052h18.376c0,3.676,0,11.526,0,22.052H177.434z"/>
	<path fill="#7CC7E8" d="M215.857,329.82c-0.334,0-4.01,3.007-5.514,4.343h-32.576c2.005-1.67,7.852-6.514,9.188-7.684
		c1.505-1.504,3.676-0.835,4.011-1.671c0.334-0.835-4.177-2.672-10.524-4.677c-0.335,2.171-2.674,10.858-4.846,14.031h-13.53
		c-2.841-1.336-8.354-3.507-8.521-3.674c-0.166-0.168-0.667-0.168-0.501,0c2.006,20.714,1.337,47.108,0.669,66.655l0,0
		c0,0.168,0.167,0.334,0.335,0.334h7.518c0.166,0,0.333-0.166,0.333-0.334c0.168-20.883,0-53.459,0-61.143h51.12
		c0,7.017-0.168,32.241,0,52.122c0,2.839-1.671,3.007-3.51,2.839c-2.838-0.333-9.02-1.168-9.354-0.836
		c-0.334,0.168-1.001,0.836,0.335,1.17c4.008,1.17,12.028,5.347,15.702,8.354c0.835-0.167,1.504-0.501,2.005-0.836
		c1.504-1.002,2.172-2.84,2.172-4.511c-0.167-17.206-0.501-36.919,0.334-56.297c1.17-2.005,3.175-2.506,2.674-3.008
		C222.705,334.163,216.358,329.82,215.857,329.82 M219.698,341.18v0.669l-0.334,2.338L219.698,341.18z M219.698,341.681
		c0-1.001,0.167-1.67,0.335-2.338L219.698,341.681z"/>
	<path fill="#7CC7E8" d="M322.439,398.147c-9.021-6.015-15.87-12.529-21.05-19.212c1.504-1.838,3.008-3.844,4.511-6.015
		c7.686-10.189,9.355-26.562,9.355-26.562h-33.411c0-2.339,0.167-4.845,0.167-7.351c0-1.671,0-5.847,0-8.854h32.91
		c0,0,4.177,0,4.177-0.669c0-1.002-8.187-7.685-8.688-7.685c-0.335,0-4.177,4.678-5.681,6.515h-21.049
		c-0.501-0.333-1.336-0.667-2.005-1.002l0,0h-0.166c-3.342-1.67-7.853-3.842-7.853-3.842c-0.166-0.168-0.669-0.168-0.5,0
		c0.5,5.513,0.835,10.69,1.001,15.702c0,11.694,0.669,21.051-2.005,31.574c-3.173,1.17-7.183,2.34-11.359,3.342
		c0-8.688,0-17.708,0-25.728h10.858v-1.837c-1.17,0-4.008-4.846-5.012-4.846c-0.835,0-2.672,3.844-4.176,4.846h-1.671
		c0-10.023,0-18.042,0-20.548c1.671-0.501,2.005-2.171,1.671-2.171c-1.17-0.335-9.522-2.506-9.855-2.506
		c-0.168-0.169-0.669-0.169-0.503,0c0.836,9.02,1.17,17.206,1.338,25.391h-8.855v1.839h8.855c0,9.188-0.334,18.208-0.669,27.564
		c-5.513,1.17-9.856,2.171-10.189,2.338c0,1.838,1.837,7.686,3.007,8.855c0.5,0.5,1.169-1.17,2.506-1.839
		c1.169-0.667,15.201-7.518,23.388-12.864c-1.671,5.515-4.345,11.528-8.688,18.377c-0.334,0.502,0.335,1.504,1.17,0.835
		c13.03-10.69,16.705-25.726,17.541-43.435h25.225c-0.166,6.182-2.672,15.537-9.188,25.393c-3.507-5.679-6.013-11.525-7.518-17.206
		h-6.682c0-0.167,2.339,11.693,10.357,22.218c-5.012,6.182-12.028,12.363-21.216,18.042c-0.836,0.503-0.167,1.671,0.5,1.504
		c1.338-0.334,13.533-4.511,24.224-15.201l0.168,0.166c11.193,11.36,23.723,15.37,24.39,15.536
		C322.605,398.982,322.773,398.313,322.439,398.147"/>
	<polygon fill="#A86CA9" points="292.368,-37.537 292.368,285.05 -19.192,285.05 -43.081,309.773 318.597,309.773 318.597,-64.768 	
		"/>
	<polygon fill="#7CC7E8" points="-81.003,274.191 280.674,274.191 280.674,-100.35 	"/>
	<path fill="#FFFFFF" d="M197.146,178.801l-46.609,62.98h37.588v15.37h9.021v-15.37h9.689v-2.672h-9.689V178.801z M188.124,239.275
		h-32.408l32.408-43.936V239.275z"/>
	<path fill="#FFFFFF" d="M238.91,206.198c-7.017,0-13.364,2.841-18.042,7.518l0,0c-0.835-18.877,7.685-34.08,22.219-32.409
		c8.687,1.671,15.535,8.353,17.04,17.208l2.506-0.502c-1.839-11.526-12.196-20.047-24.057-19.879
		c-8.854,0.166-17.041,5.679-21.049,14.031c-3.844,7.853-5.847,18.545-5.012,38.758c0.835,17.709,12.695,27.564,26.561,27.564
		c14.368,0,25.895-11.86,25.895-26.395C264.971,218.059,253.277,206.198,238.91,206.198 M238.241,256.315
		c-9.354,0-17.04-9.856-17.541-22.553c0-0.334,0-0.669,0-1.169l0,0c0-13.03,7.853-23.723,17.541-23.723
		c9.689,0,17.541,10.692,17.541,23.723C255.782,245.623,247.931,256.315,238.241,256.315"/>
	<polyline fill="#7CC7E8" points="254.28,320.298 254.28,320.298 254.112,320.132 253.778,320.633 	"/>
</g>
</svg>
